<svg width="140" height="30" viewBox="0 0 140 30" fill="none" xmlns="http://www.w3.org/2000/svg">
<g clip-path="url(#clip0_625_13464)">
<path d="M46.1504 6.35449C47.8224 6.35454 49.3612 6.62149 50.7656 7.1543C52.17 7.67231 53.3738 8.37571 54.377 9.26367C55.3968 10.1369 56.1836 11.1503 56.7354 12.3047C57.3038 13.4591 57.5879 14.6658 57.5879 15.9238H38.4502C38.4502 17.4482 38.6679 18.8616 39.1025 20.1641C39.554 21.4664 40.1809 22.5919 40.9834 23.5391C41.786 24.4862 42.7393 25.227 43.8428 25.7598C44.9462 26.2924 46.1588 26.5585 47.4795 26.5586C48.5828 26.5586 49.6453 26.4035 50.665 26.0928C51.6847 25.7672 52.6047 25.345 53.4238 24.8271C54.2598 24.3091 54.9715 23.7168 55.5566 23.0508C56.1416 22.385 56.5511 21.6965 56.7852 20.9863L58.2646 21.5635C57.8968 22.7324 57.3034 23.8276 56.4844 24.8486C55.6651 25.8698 54.7031 26.7655 53.5996 27.5352C52.5128 28.2899 51.3255 28.89 50.0381 29.334C48.7509 29.7779 47.4466 29.9999 46.126 30C44.3871 30 42.7472 29.711 41.209 29.1338C39.6877 28.5566 38.3585 27.7718 37.2217 26.7803C36.0847 25.7886 35.1815 24.6269 34.5127 23.2949C33.8606 21.948 33.5342 20.5195 33.5342 19.0098C33.5342 17.1893 33.8356 15.509 34.4375 13.9697C35.0395 12.4158 35.8926 11.0759 36.9961 9.95117C38.0996 8.82656 39.4209 7.94591 40.959 7.30957C42.5138 6.67331 44.2445 6.35451 46.1504 6.35449ZM128.765 6.35449C130.436 6.35454 131.841 6.50293 132.978 6.79883C134.114 7.08005 135.026 7.48006 135.712 7.99805C136.397 8.51604 136.883 9.15249 137.167 9.90723C137.468 10.6471 137.618 11.4685 137.618 12.3711V26.4033C137.618 27.0989 137.843 27.7209 138.295 28.2686C138.763 28.8013 139.332 29.2157 140.001 29.5117H134.884C134.215 29.2158 133.647 28.8011 133.179 28.2686C132.727 27.7209 132.502 27.0989 132.502 26.4033C131.9 26.8029 131.306 27.2173 130.721 27.6465C130.152 28.0756 129.525 28.4681 128.84 28.8232C128.171 29.1636 127.418 29.445 126.582 29.667C125.763 29.889 124.809 30 123.723 30C122.72 30 121.808 29.8515 120.989 29.5557C120.187 29.2745 119.501 28.882 118.933 28.3789C118.381 27.8758 117.946 27.2766 117.628 26.5811C117.327 25.8855 117.177 25.138 117.177 24.3389C117.177 23.362 117.394 22.4808 117.829 21.6963C118.264 20.912 118.857 20.2161 119.609 19.6094C120.378 18.9878 121.265 18.4404 122.269 17.9668C123.272 17.4785 124.342 17.0487 125.479 16.6787C126.615 16.2939 127.786 15.9532 128.99 15.6572C130.194 15.3613 131.365 15.0875 132.502 14.8359V13.415C132.502 12.379 132.418 11.5054 132.251 10.7949C132.084 10.0847 131.824 9.51511 131.473 9.08594C131.122 8.64215 130.671 8.33097 130.119 8.15332C129.584 7.96095 128.94 7.8643 128.188 7.86426C127.469 7.86426 126.808 7.99067 126.206 8.24219C125.604 8.49377 125.069 8.83453 124.601 9.26367C124.149 9.67802 123.773 10.1739 123.472 10.751C123.188 11.3132 122.996 11.9126 122.896 12.5488H118.229C118.363 11.5722 118.74 10.6992 119.358 9.92969C119.994 9.16017 120.788 8.51602 121.741 7.99805C122.694 7.46533 123.773 7.05756 124.977 6.77637C126.197 6.4952 127.461 6.35449 128.765 6.35449ZM68.0605 10.9502C69.6154 9.41112 71.2295 8.26458 72.9014 7.50977C74.5734 6.74021 76.271 6.3545 77.9932 6.35449C78.8958 6.35455 79.732 6.53262 80.501 6.8877C81.2867 7.24291 81.9725 7.73195 82.5576 8.35352C83.1427 8.97506 83.6031 9.70731 83.9375 10.5508C84.2718 11.3795 84.4394 12.2678 84.4395 13.2148V29.5117H79.3477V13.9922C79.3476 13.2376 79.2474 12.5789 79.0469 12.0166C78.8463 11.4395 78.5611 10.958 78.1934 10.5732C77.8256 10.1886 77.391 9.89941 76.8896 9.70703C76.4049 9.49988 75.8606 9.39653 75.2588 9.39648C74.724 9.39653 74.1553 9.47793 73.5537 9.64062C72.9519 9.80341 72.3326 10.0332 71.6973 10.3291C71.0788 10.6103 70.4603 10.9511 69.8418 11.3506C69.2232 11.7502 68.629 12.1943 68.0605 12.6826V29.5117H62.9443V7.62012L66.6064 6.35449H68.0605V10.9502ZM96.042 10.9502C97.5968 9.41112 99.2109 8.2646 100.883 7.50977C102.555 6.74023 104.253 6.35452 105.975 6.35449C106.877 6.35455 107.714 6.53252 108.483 6.8877C109.269 7.2429 109.955 7.73204 110.54 8.35352C111.125 8.97496 111.585 9.70751 111.919 10.5508C112.253 11.3795 112.421 12.2678 112.421 13.2148V29.5117H107.329V13.9922C107.329 13.2375 107.229 12.5789 107.028 12.0166C106.828 11.4395 106.543 10.958 106.176 10.5732C105.808 10.1885 105.373 9.89945 104.871 9.70703C104.386 9.49995 103.843 9.39657 103.241 9.39648C102.706 9.39648 102.137 9.47788 101.535 9.64062C100.933 9.80338 100.315 10.0332 99.6797 10.3291C99.0611 10.6103 98.4418 10.951 97.8232 11.3506C97.2047 11.7501 96.6104 12.1943 96.042 12.6826V29.5117H90.9258V7.62012L94.5879 6.35449H96.042V10.9502ZM9.63965 0C13.0589 2.70113e-05 16.001 0.281911 18.4648 0.845703C20.9286 1.40952 22.9824 2.31431 24.625 3.56055C26.5021 4.98482 27.91 6.61739 28.8486 8.45703C29.804 10.2967 30.2822 12.3074 30.2822 14.4883C30.2822 16.5653 29.8547 18.5169 29 20.3418C28.1619 22.1667 26.9209 23.762 25.2783 25.127C23.6525 26.4771 21.6323 27.5457 19.2188 28.332C16.822 29.1183 14.0724 29.5117 10.9717 29.5117H0.191406C0.87459 27.3306 2.22054 25.221 4.13281 23.3359V27.3525H10.0918C11.969 27.3525 13.7381 27.0782 15.3975 26.5293C17.0566 25.9803 18.4982 25.164 19.7217 24.0811C20.9619 22.998 21.9347 21.6702 22.6387 20.0977C23.3594 18.5101 23.7197 16.6768 23.7197 14.5996C23.7197 12.7749 23.3842 11.106 22.7139 9.59277C22.0434 8.06462 21.1042 6.75124 19.8975 5.65332C18.6907 4.55547 17.2492 3.70206 15.5732 3.09375C13.9139 2.48546 12.0949 2.18071 10.1172 2.18066H4.13281V6.66797C2.05079 4.63265 0.641818 2.34966 0.0361328 0H9.63965ZM132.502 16.2793C131.766 16.4865 131.005 16.7229 130.219 16.9893C129.433 17.2556 128.663 17.5591 127.911 17.8994C127.159 18.2249 126.44 18.5811 125.755 18.9658C125.069 19.3506 124.467 19.765 123.948 20.209C123.43 20.6528 123.021 21.1192 122.72 21.6074C122.419 22.0959 122.269 22.6068 122.269 23.1396C122.269 23.702 122.385 24.2351 122.619 24.7383C122.853 25.2265 123.162 25.6632 123.547 26.0479C123.931 26.4178 124.375 26.7136 124.877 26.9355C125.378 27.1426 125.897 27.2471 126.432 27.2471C127 27.247 127.543 27.18 128.062 27.0469C128.58 26.9137 129.083 26.7366 129.567 26.5146C130.052 26.2779 130.537 26.0107 131.021 25.7148C131.506 25.4189 132 25.1001 132.502 24.7598V16.2793ZM0 5.22656C1.0861 6.86235 2.48831 8.374 4.13281 9.72168V20.2734C2.4766 21.635 1.08062 23.1579 0 24.7988V5.22656ZM44.5703 8.04199C43.8013 8.04201 43.0654 8.19808 42.3633 8.50879C41.6611 8.80478 41.0342 9.22689 40.4824 9.77441C39.9307 10.3072 39.4704 10.9436 39.1025 11.6836C38.7515 12.4236 38.5425 13.2227 38.4756 14.0811L51.1924 14.1035C51.1924 13.2451 51.0161 12.4451 50.665 11.7051C50.3307 10.9653 49.8625 10.3286 49.2607 9.7959C48.659 9.2485 47.9565 8.81957 47.1543 8.50879C46.3518 8.19801 45.4898 8.04204 44.5703 8.04199Z" fill="white"/>
<path d="M0 24.7985C2.87815 20.4281 7.99545 16.9001 14.2994 15.0049C10.8158 13.9455 7.6912 12.3915 5.1074 10.4815C3.03841 8.95195 1.29497 7.17695 0 5.22656V24.7985Z" fill="white"/>
<path d="M0 24.7985C2.87815 20.4281 7.99545 16.9001 14.2994 15.0049C10.8158 13.9455 7.6912 12.3915 5.1074 10.4815C3.03841 8.95195 1.29497 7.17695 0 5.22656V24.7985Z" fill="url(#paint0_linear_625_13464)"/>
</g>
<defs>
<linearGradient id="paint0_linear_625_13464" x1="14.2994" y1="15.0125" x2="0" y2="15.0125" gradientUnits="userSpaceOnUse">
<stop stop-color="#4467A8"/>
<stop offset="1" stop-color="#9A6363"/>
</linearGradient>
<clipPath id="clip0_625_13464">
<rect width="140" height="30" fill="white"/>
</clipPath>
</defs>
</svg>
